<svg width="39" height="39" viewBox="0 0 39 39" fill="none" xmlns="http://www.w3.org/2000/svg">
<path fill-rule="evenodd" clip-rule="evenodd" d="M19.3887 37.6081C29.4388 37.6081 37.586 29.4609 37.586 19.4109C37.586 9.36081 29.4388 1.21362 19.3887 1.21362C9.33867 1.21362 1.19148 9.36081 1.19148 19.4109C1.19148 29.4609 9.33867 37.6081 19.3887 37.6081ZM19.3887 38.7996C30.0968 38.7996 38.7775 30.119 38.7775 19.4109C38.7775 8.70277 30.0968 0.0221367 19.3887 0.0221367C8.68063 0.0221367 0 8.70277 0 19.4109C0 30.119 8.68063 38.7996 19.3887 38.7996Z" fill="black"/>
<path d="M20.2766 26.5896V11.9542H24.8241C25.817 11.9542 26.6974 12.0733 27.4652 12.3116C28.2463 12.5499 28.8553 12.9338 29.2922 13.4634C29.7423 13.9797 29.9673 14.6747 29.9673 15.5485C29.9673 16.0251 29.8813 16.4752 29.7092 16.8988C29.5503 17.3225 29.3186 17.6998 29.0141 18.0307C28.7097 18.3485 28.3324 18.5801 27.8822 18.7258V18.8251C28.7163 18.9972 29.4047 19.3745 29.9475 19.957C30.4903 20.5262 30.7617 21.3073 30.7617 22.3002C30.7617 23.2666 30.5167 24.0676 30.0269 24.703C29.5503 25.3385 28.8884 25.8151 28.0411 26.1328C27.2071 26.4373 26.2473 26.5896 25.1617 26.5896H20.2766ZM22.5801 18.0705H24.5461C25.6581 18.0705 26.4591 17.8719 26.9489 17.4747C27.452 17.0776 27.7035 16.5414 27.7035 15.8662C27.7035 15.1116 27.4454 14.5754 26.9291 14.2577C26.4127 13.9267 25.6383 13.7613 24.6057 13.7613H22.5801V18.0705ZM22.5801 24.7825H24.9035C26.0421 24.7825 26.9224 24.5707 27.5447 24.147C28.1801 23.7234 28.4978 23.0681 28.4978 22.1811C28.4978 21.3603 28.1867 20.7645 27.5645 20.3938C26.9555 20.0099 26.0685 19.818 24.9035 19.818H22.5801V24.7825Z" fill="black"/>
<path d="M14.6602 26.8676C13.6805 26.8676 12.8399 26.6624 12.1382 26.252C11.4498 25.8416 10.8806 25.2326 10.4305 24.425L12.039 23.2534C12.3567 23.8094 12.7141 24.2132 13.1113 24.4647C13.5084 24.7163 13.9387 24.842 14.4021 24.842C15.1434 24.842 15.6928 24.6236 16.0503 24.1867C16.4077 23.7366 16.5864 22.9754 16.5864 21.9031V11.9542H18.9098V22.1016C18.9098 22.9754 18.7642 23.7763 18.473 24.5045C18.1817 25.2193 17.725 25.7952 17.1028 26.2321C16.4805 26.6557 15.6664 26.8676 14.6602 26.8676Z" fill="black"/>
<path d="M8.01582 26.5896V11.9542H10.3194V26.5896H8.01582Z" fill="black"/>
</svg>
