<svg width="98" height="98" viewBox="0 0 98 98" fill="none" xmlns="http://www.w3.org/2000/svg">
<path d="M30.0509 23.5098H23.6074C21.9506 23.5098 20.6074 24.8529 20.6074 26.5098V80.4293C20.6074 82.0861 21.9506 83.4293 23.6074 83.4293H65.9289C67.5857 83.4293 68.9289 82.0861 68.9289 80.4293V74.5235" stroke="black" stroke-width="2"/>
<path d="M29.0713 17.5703C29.0713 15.9135 30.4144 14.5703 32.0713 14.5703H61.6932C62.4248 14.5703 63.1313 14.8377 63.6796 15.3221L76.3791 26.5428C77.0236 27.1123 77.3927 27.931 77.3927 28.791V71.4898C77.3927 73.1467 76.0496 74.4898 74.3927 74.4898H32.0713C30.4144 74.4898 29.0713 73.1467 29.0713 71.4898V17.5703Z" stroke="black" stroke-width="2"/>
<line x1="38.5244" y1="32.0605" x2="67.9378" y2="32.0605" stroke="black" stroke-width="2"/>
<line x1="38.5244" y1="41.5869" x2="67.9378" y2="41.5869" stroke="black" stroke-width="2"/>
<line x1="38.5244" y1="51.1123" x2="67.9378" y2="51.1123" stroke="black" stroke-width="2"/>
<line x1="38.5244" y1="60.6387" x2="67.9378" y2="60.6387" stroke="black" stroke-width="2"/>
</svg>
