<svg width="99" height="99" viewBox="0 0 99 99" fill="none" xmlns="http://www.w3.org/2000/svg">
<path fill-rule="evenodd" clip-rule="evenodd" d="M66.466 81.6648C56.5395 81.6648 48.4926 73.1008 48.4926 62.5365C48.4926 51.9722 56.5395 43.4082 66.466 43.4082C76.3925 43.4082 84.4395 51.9722 84.4395 62.5365C84.4395 67.263 82.8287 71.5891 80.1596 74.927C80.6705 76.7012 81.7983 78.7165 83.2 79.6952H74.4188C72.0212 80.9562 69.3214 81.6648 66.466 81.6648Z" fill="white"/>
<path d="M80.1596 74.927L79.1986 75.2037L79.0554 74.7065L79.3786 74.3024L80.1596 74.927ZM83.2 79.6952L83.7725 78.8753L86.379 80.6952H83.2V79.6952ZM74.4188 79.6952L73.9533 78.8102L74.1718 78.6952H74.4188V79.6952ZM49.4926 62.5365C49.4926 72.6081 57.1496 80.6648 66.466 80.6648V82.6648C55.9295 82.6648 47.4926 73.5935 47.4926 62.5365H49.4926ZM66.466 44.4082C57.1496 44.4082 49.4926 52.465 49.4926 62.5365H47.4926C47.4926 51.4795 55.9295 42.4082 66.466 42.4082V44.4082ZM83.4395 62.5365C83.4395 52.465 75.7824 44.4082 66.466 44.4082V42.4082C77.0025 42.4082 85.4395 51.4795 85.4395 62.5365H83.4395ZM79.3786 74.3024C81.9073 71.1401 83.4395 67.0338 83.4395 62.5365H85.4395C85.4395 67.4922 83.7501 72.038 80.9406 75.5515L79.3786 74.3024ZM82.6275 80.5151C80.9649 79.3543 79.743 77.0939 79.1986 75.2037L81.1205 74.6502C81.5981 76.3085 82.6316 78.0788 83.7725 78.8753L82.6275 80.5151ZM74.4188 78.6952H83.2V80.6952H74.4188V78.6952ZM66.466 80.6648C69.1535 80.6648 71.6941 79.9984 73.9533 78.8102L74.8843 80.5802C72.3484 81.9141 69.4893 82.6648 66.466 82.6648V80.6648Z" fill="black"/>
<circle cx="1.88934" cy="1.88934" r="1.88934" transform="matrix(-1 0 0 1 73.0781 60.6465)" fill="black"/>
<circle cx="1.88934" cy="1.88934" r="1.88934" transform="matrix(-1 0 0 1 68.3545 60.6465)" fill="black"/>
<circle cx="1.88934" cy="1.88934" r="1.88934" transform="matrix(-1 0 0 1 63.6318 60.6465)" fill="black"/>
<path fill-rule="evenodd" clip-rule="evenodd" d="M39.6207 69.0773C52.9412 69.0773 63.7395 57.5851 63.7395 43.4088C63.7395 29.2324 52.9412 17.7402 39.6207 17.7402C26.3003 17.7402 15.502 29.2324 15.502 43.4088C15.502 49.7514 17.6635 55.5567 21.2454 60.0359C20.5597 62.4167 19.0464 65.1211 17.1655 66.4343H28.9491C32.1663 68.1264 35.7892 69.0773 39.6207 69.0773Z" fill="white"/>
<path d="M21.2454 60.0359L22.2064 60.3127L22.3496 59.8155L22.0264 59.4114L21.2454 60.0359ZM17.1655 66.4343L16.593 65.6144L13.9864 67.4343H17.1655V66.4343ZM28.9491 66.4343L29.4146 65.5493L29.196 65.4343H28.9491V66.4343ZM62.7395 43.4088C62.7395 57.0924 52.3311 68.0773 39.6207 68.0773V70.0773C53.5512 70.0773 64.7395 58.0778 64.7395 43.4088H62.7395ZM39.6207 18.7402C52.3311 18.7402 62.7395 29.7251 62.7395 43.4088H64.7395C64.7395 28.7397 53.5512 16.7402 39.6207 16.7402V18.7402ZM16.502 43.4088C16.502 29.7251 26.9103 18.7402 39.6207 18.7402V16.7402C25.6903 16.7402 14.502 28.7397 14.502 43.4088H16.502ZM22.0264 59.4114C18.5849 55.1078 16.502 49.5222 16.502 43.4088H14.502C14.502 49.9806 16.7421 56.0057 20.4644 60.6604L22.0264 59.4114ZM17.738 67.2543C19.8798 65.7588 21.4872 62.8094 22.2064 60.3127L20.2845 59.7591C19.6322 62.024 18.2131 64.4833 16.593 65.6144L17.738 67.2543ZM28.9491 65.4343H17.1655V67.4343H28.9491V65.4343ZM39.6207 68.0773C35.9571 68.0773 32.4934 67.1686 29.4146 65.5493L28.4836 67.3194C31.8392 69.0843 35.6213 70.0773 39.6207 70.0773V68.0773Z" fill="black"/>
<circle cx="33.2834" cy="43.4084" r="2.53533" fill="black"/>
<circle cx="39.6222" cy="43.4084" r="2.53533" fill="black"/>
<circle cx="45.9601" cy="43.4084" r="2.53533" fill="black"/>
</svg>
